<svg width="47" height="49" viewBox="0 0 47 49" fill="none" xmlns="http://www.w3.org/2000/svg">
<circle cx="18" cy="6" r="2" fill="white"/>
<circle cx="14" cy="6" r="2" fill="white"/>
<circle cx="2" cy="16" r="2" fill="white"/>
<circle cx="10" cy="6" r="2" fill="white"/>
<circle cx="2" cy="8" r="2" fill="white"/>
<circle cx="2" cy="12" r="2" fill="white"/>
<circle cx="2" cy="20" r="2" fill="white"/>
<circle cx="2" cy="32" r="2" fill="white"/>
<circle cx="2" cy="24" r="2" fill="white"/>
<circle cx="2" cy="28" r="2" fill="white"/>
<circle cx="2" cy="36" r="2" fill="white"/>
<circle cx="34.0015" cy="46.1339" r="2" transform="rotate(-179.94 34.0015 46.1339)" fill="white"/>
<circle cx="41.0021" cy="43.0021" r="2" transform="rotate(-179.94 41.0021 43.0021)" fill="white"/>
<circle cx="41.0021" cy="39.0021" r="2" transform="rotate(-179.94 41.0021 39.0021)" fill="white"/>
<circle cx="41.0021" cy="35.0021" r="2" transform="rotate(-179.94 41.0021 35.0021)" fill="white"/>
<circle cx="41.0021" cy="31.0021" r="2" transform="rotate(-179.94 41.0021 31.0021)" fill="white"/>
<circle cx="18.0021" cy="23.0021" r="2" transform="rotate(-179.94 18.0021 23.0021)" fill="white"/>
<circle cx="41.0021" cy="27.0021" r="2" transform="rotate(-179.94 41.0021 27.0021)" fill="white"/>
<circle cx="20.8278" cy="20.3884" r="2" transform="rotate(-136.204 20.8278 20.3884)" fill="white"/>
<circle cx="23.5931" cy="17.4982" r="2" transform="rotate(-136.204 23.5931 17.4982)" fill="white"/>
<circle cx="26.3584" cy="14.6081" r="2" transform="rotate(-136.204 26.3584 14.6081)" fill="white"/>
<circle cx="29.1238" cy="11.7179" r="2" transform="rotate(-136.204 29.1238 11.7179)" fill="white"/>
<circle cx="31.8891" cy="8.8278" r="2" transform="rotate(-136.204 31.8891 8.8278)" fill="white"/>
<circle cx="37.8278" cy="2.8278" r="2" transform="rotate(-136.204 37.8278 2.8278)" fill="white"/>
<circle cx="41.8278" cy="12.8278" r="2" transform="rotate(-136.204 41.8278 12.8278)" fill="white"/>
<circle cx="35.8278" cy="18.8278" r="2" transform="rotate(-136.204 35.8278 18.8278)" fill="white"/>
<circle cx="38.8278" cy="15.8278" r="2" transform="rotate(-136.204 38.8278 15.8278)" fill="white"/>
<circle cx="22.8278" cy="30.8278" r="2" transform="rotate(-136.204 22.8278 30.8278)" fill="white"/>
<circle cx="15.8278" cy="26.8278" r="2" transform="rotate(-136.204 15.8278 26.8278)" fill="white"/>
<circle cx="14.8278" cy="34.8278" r="2" transform="rotate(-136.204 14.8278 34.8278)" fill="white"/>
<circle cx="14.8278" cy="30.8278" r="2" transform="rotate(-136.204 14.8278 30.8278)" fill="white"/>
<circle cx="18.8278" cy="32.8278" r="2" transform="rotate(-136.204 18.8278 32.8278)" fill="white"/>
<circle cx="32.8278" cy="21.8278" r="2" transform="rotate(-136.204 32.8278 21.8278)" fill="white"/>
<circle cx="26.8278" cy="27.8278" r="2" transform="rotate(-136.204 26.8278 27.8278)" fill="white"/>
<circle cx="29.8278" cy="24.8278" r="2" transform="rotate(-136.204 29.8278 24.8278)" fill="white"/>
<circle cx="43.8278" cy="8.8278" r="2" transform="rotate(-136.204 43.8278 8.8278)" fill="white"/>
<circle cx="40.8278" cy="5.8278" r="2" transform="rotate(-136.204 40.8278 5.8278)" fill="white"/>
<circle cx="34.8278" cy="5.8278" r="2" transform="rotate(-136.204 34.8278 5.8278)" fill="white"/>
<circle cx="38.001" cy="46.068" r="2" transform="rotate(-179.94 38.001 46.068)" fill="white"/>
<circle cx="30.0021" cy="46.1999" r="2" transform="rotate(-179.94 30.0021 46.1999)" fill="white"/>
<circle cx="18" cy="46" r="2" transform="rotate(90 18 46)" fill="white"/>
<circle cx="26" cy="46" r="2" transform="rotate(90 26 46)" fill="white"/>
<circle cx="22" cy="46" r="2" transform="rotate(90 22 46)" fill="white"/>
<circle cx="14" cy="46" r="2" transform="rotate(90 14 46)" fill="white"/>
<circle cx="6" cy="46" r="2" fill="white"/>
<circle cx="2" cy="40" r="2" fill="white"/>
<circle cx="2" cy="44" r="2" fill="white"/>
<circle cx="10" cy="46" r="2" fill="white"/>
<circle cx="6" cy="6" r="2" fill="white"/>
</svg>
